<svg xmlns="http://www.w3.org/2000/svg" viewBox="0 0 1024 1024">
    <path fill="currentColor"
        d="M505.858 114.704a48.889 48.889 0 0126.405 5.63c12.86 6.814 18.545 16.161 22.618 29.575 41.793 4.473 90.304 20.253 127.608 39.238 13.122 6.678 27.391 15.231 40.197 22.744 5.21-4.627 10.182-7.82 16.879-10.031a46.878 46.878 0 0135.766 2.725 47.09 47.09 0 0123.91 27.822c4.886 15.119 1.544 27.528-5.426 41.142 11.105 14.976 22.394 30.336 32.059 46.258a407.183 407.183 0 0153.11 150.559c6.864.987 11.652 2.12 17.719 5.734a42.239 42.239 0 0119.551 26.567 45.472 45.472 0 01-5.683 35.31c-7.653 12.358-17.297 16.248-30.674 19.33-5.969 37.967-13.665 70.334-29.005 105.848-6.195 14.341-12.736 27.386-19.716 41.352 7.57 13.908 10.726 25.537 5.066 40.964a44.36 44.36 0 01-23.125 24.963c-12.337 5.585-23.351 3.934-35.619-.782-43.846 47.612-107.38 83.758-169.664 100.66-1.283 13.177-6.701 25.503-16.959 34.155a42.81 42.81 0 01-31.981 10.17c-13.452-1.256-24.688-7.67-33.295-17.935-3.053-4.122-4.533-7.111-5.863-12-14.805.938-44.454-2.158-59.232-4.339-75.329-11.118-137.276-41.362-196.024-89.165-7.04 3.767-11.769 6.288-19.887 7.359a49.465 49.465 0 01-36.39-9.999c-22.247-17.235-23.876-48.735-6.803-70.328-4.035-5.563-9.028-14.524-12.499-20.496-23.131-39.8-37.91-86.833-45.711-132.188-7.744-1.582-14.487-3.592-21.179-7.911-19.927-12.859-23.646-41.863-10.462-60.848 7.403-10.661 16.842-15.403 29.372-17.727 7.589-60.237 27.594-116.37 60.154-167.499 7.934-12.46 18.911-29.309 28.784-40.292-5.384-6.412-8.934-13.886-10.116-22.204a42.16 42.16 0 018.294-31.708c9.745-12.854 27.111-20.16 43.046-17.154 8.637 1.63 14.441 4.888 21.284 10.203 6.632-4.97 21.808-13.117 29.408-17.345 46.904-26.091 88.727-37.144 141.321-44.581 6.883-21.087 21.2-31.134 42.762-33.776zm10.022 477.973a1651.087 1651.087 0 0055.022 20.14c10.28 3.635 28.199 11.009 38.578 10.674 6.8-4.151 8.259-9.31 14.891-14.546 6.922-5.464 17.222-7.828 22.147-14.379 1.578-11.208 1.212-22.93.901-34.231-.501-18.157-5.962-114.563-13.164-124.974-.635-.918-1.486-1.685-2.28-2.462-5.917-1.258-13.293-2.562-18.827-4.624-7.505-2.798-13.172-11.286-21.747-10.795-11.882 6.107-23.952 14.393-35.227 21.709a3356.345 3356.345 0 01-42.504 27.109l-51.22 32.318c-10.008 6.268-20.122 12.352-29.839 19.105-5.953 3.574-5.251 13.012-5.074 19.057.094 3.208.43 12.837 2.169 15.216 7.149 9.778 28.09 16.552 38.559 21.144 16.092 7.058 31.703 13.534 47.615 19.539zM193.416 432.095c-10.762 16.729-19.972 34.604-26.17 53.556A44.534 44.534 0 01185.766 514a45.542 45.542 0 01-7.87 34.212c-4.211 5.902-8.749 9.393-14.83 13.184 7.175 42.52 18.264 80.034 38.604 118.438 4.24 8.005 10.555 19.204 15.956 26.38 7.189-2.169 12.408-2.867 19.849-2.634l2.202-5.201a406.36 406.36 0 0154.017-87.498c8.826-11.068 23.072-26.303 30.598-37.433-1.437-5.739-3.317-10.317-5.018-15.877-4.037-13.2-1.447-23.499 1.708-36.373-6.139-8.371-19.008-17.136-27.567-23.951a513.705 513.705 0 01-26.162-22.08 870.37 870.37 0 01-26.041-24.68c-2.796-2.766-17.572-18.272-19.373-19.266-10.467 3.4-17.855 4.631-28.423.874zm188.281-75.596c-2.888 15.088-5.194 118.534 1.012 126.738 2.276 3.009 23.525 14.058 27.967 16.042 1.715.766 3.524 1.208 5.347 1.632 11.067-5.267 24.632-14.175 35.032-20.811l43.721-27.983a3255.42 3255.42 0 0149.557-31.47c10.475-6.571 22.174-13.069 31.715-20.93 1.611-1.326 2.794-2.312 3.238-4.43 1.253-5.982-.492-21.152-3.903-26.14-6.063-8.866-89.463-27.245-103.962-30.2-14.412-2.937-29.077-5.6-43.645-7.601-4.134-.568-8.197-1.019-12.375-.737-5.047 4.985-8.163 11.635-13.907 16.138-5.877 4.608-12.83 7.262-19.797 9.752zm416.94 150.084c-6.851 10.33-12.483 21.893-18.658 32.594-18.377 31.845-45.294 57.215-68.117 85.58-1.598 1.987 2.671 14.631 3.139 17.602 2.149 10.05.666 19.767-2.1 29.52 11.009 6.95 22.202 13.041 33.704 19.123 1.69.894 3.871 1.955 5.456 2.971 3.921 2.113 9.232 4.769 12.933 7.031 15.68-13.842 30.271-17.665 49.998-9.633 4.969-8.534 9.657-19.064 13.773-28.07 16.232-35.517 26.637-70.124 30.873-108.912-22.511-15.418-29.34-28.73-22.899-56.127-2.772-1.014-4.137-1.642-6.764-2.95-9.963 9.379-18.058 11.168-31.338 11.271zM427.61 708.064c19.237 2.483 19.028 4.048 31.955 15.922 17.735-3.486 38.088-10.478 55.101-16.6 11.375-4.093 25.493-9.215 36.472-13.973a1770.325 1770.325 0 0027.989-12.293c6.077-2.744 19.702-7.883 22.29-14.505 1.551-3.968.682-13.035-1.06-16.86-2.086-4.994-7.314-6.335-12.099-8-20.132-7.007-40.775-13.425-60.691-20.986a1594.042 1594.042 0 01-61.952-24.707c-11.885-5.058-36.962-17.853-48.308-17.974-4.598 2.676-17.54 13.806-18.705 18.758-3.106 13.212 21.44 97.196 29.008 111.218zm-18.66-427.682c2.446 3.873 4.053 6.373 6.138 10.886 2.355 5.099 2.99 11.886 6.197 16.477.135.193 3.264 1.131 3.843 1.232 13.026 2.269 25.936 3.706 38.987 6.132a842.946 842.946 0 0183.5 19.877c10.302 3.364 27.579 9.791 37.734 9.532 6.353-3.976 12.382-10.869 17.212-16.575-8.983-31.898-46.929-101.848-68.61-127.894-19.248 8.898-36.251 9.713-53.929-3.589-20.912 16.67-41.571 42.65-57.63 63.934-3.778 5.007-10.75 14.596-13.442 19.988zM258.618 710.501c12.595 6.612 22.549 22.145 23.01 36.435 14.436.854 26.745 1.614 41.247 1.08 17.732-.814 53.245-2.903 69.867-7.876 3.647-10.636 4.818-15.876 13.342-23.533a932.77 932.77 0 01-18.648-60.342 890.007 890.007 0 01-8.26-32.9c-1.54-6.492-3.124-16.584-6.673-21.907-1.722-.893-30.073-11.022-31.665-11.091-6.242 4.166-10.382 9.302-15.083 15.083-26.055 32.041-51.188 66.737-67.137 105.051zm434.235-103.566c10.763-4.781 25.078-22.252 33.011-31.675 19.598-23.489 39.313-49.934 51.639-78.067-7.834-11.716-12.118-20.665-9.267-35.138.203-1.02.416-2.038.64-3.054-15.499-11.323-69.529-47.726-87.621-49.345-3.333 2.111-21.503 17.556-21.777 20.746-1.093 12.699 2.808 33.189 4.322 46.068a1532.455 1532.455 0 013.211 32.078 813.734 813.734 0 012.967 58.142c.269 23.572-3.352 31.91 22.875 40.245zM388.361 763.688c-35.266 4.011-71.861 8.093-107.396 4.432l-3.063 7.688c37.486 34.243 96.844 64.647 145.984 76.895a332.402 332.402 0 0093.425 11.72c.774-3.897 1.247-5.872 2.626-9.616-22.829-18.921-42.884-36.357-61.941-59.393-3.435-4.153-9.051-10.114-12.003-14.315-12.553 3.033-23.281 4.184-35.035-2.386-9.535-5.329-11.022-16.277-22.597-15.025zm291.8-422.507c6.318 9.648 10.263 19.372 10.829 30.985.159 3.244-.572 7.193.241 10.311 2.055 7.887 38.792 24.57 47.017 29.298 6.336 3.642 12.389 8.699 18.917 11.836 5.497 3.727 17.793 11.495 22.597 15.451 4.249-2.736 7.011-4.563 11.759-6.349-1.135-44.81-9.948-102.771-29.293-143.578-9.967 1.173-22.943-1.233-31.131-7.281a788.928 788.928 0 01-30.102 35.639c-6.51 7.326-14.886 16.12-20.834 23.688zm174.16 134.962l5.474-2.529c-2.785-13.447-5.141-26.552-8.497-39.873-9.794-38.878-24.491-77.509-46.721-111.064-2.559-3.861-10.8-17.04-14.133-19.381 2.324 4.997 5.263 15.846 6.849 21.426a444.657 444.657 0 0113.378 67.211c1.504 13.315 2.214 27.306 3.13 40.711 19.296 9.391 26.806 21.521 25.1 42.848l9.123 4.957c2.091-1.475 4.126-2.948 6.297-4.306zm-522.07-137.614c-27.144 7.709-69.578 27.75-91.601 45.342 2.794 12.385 2.196 19.739-2.522 31.654 11.512 14.184 25.534 26.77 38.821 39.255 4.781 4.491 13.741 11.351 17.714 15.592 8.92 7.328 30.267 26.169 39.996 29.378 4.96-1.995 20.589-10.26 21.932-14.827 2.38-8.09.425-27.417.007-36.619a534.933 534.933 0 01.09-50.816c.561-12.232 2.659-28.973 1.032-40.585-3.804-3.598-10.643-6.676-15.206-10.393-2.725-2.219-6.726-7.394-8.505-8.106l-1.758.125zm-36.94-70.203c-10.547 10.378-18.634 15.561-33.806 15.369a94.894 94.894 0 01-9.617-.7c-10.912 22.333-20.025 44.196-25.949 68.433-.975 3.987-2.645 8.18-1.348 12.251 3.687 3.648 18.348-7.514 22.522-10.202 26.83-14.886 50.443-26.756 79.729-36.432.084-7.561.228-14.184 2.583-21.524-12.176-11.979-19.641-17.886-34.114-27.195zm8.282-41.612c2.572 9.8 2.693 12.64 1.75 22.825 7.135 5.042 14.578 10.916 21.5 15.703 4.415 3.696 10.687 8.694 14.615 12.613 13.948-14.406 30.342-14.036 48.577-10.607 5.803-5.648 14.612-19.057 19.98-26.207a383.708 383.708 0 0143.27-48.68c3.086-2.939 8.767-8.492 12.119-10.884-1.238-4.016-2.07-10.055-4.941-12.339-1.634-.266-1.869-.15-3.48.061-40.083 3.839-85.41 20.365-121.076 38.69-10.92 5.611-21.801 12.432-32.314 18.825zM582.45 829.091c18.348-30.07 31.78-58.394 42.318-92.049 3.741-11.946 6.951-19.549 8.058-32.326-5.777-4.406-16.058-13.479-23.426-13.248-24.83 10.28-46.732 22.059-72.645 31.7a785.667 785.667 0 01-33.501 11.62c-10.256 3.197-27.163 7.368-35.928 12.305-1.745 7.433-3.306 10.945-5.21 17.556 12.473 17.549 30.823 37.386 46.549 52.187 6.335 5.874 15.624 14.853 23.069 19.021 16.732-11.568 31.436-15.361 50.716-6.766zm172.445-109.152c-17.335-9.178-36.545-19.001-53.525-28.648-14.804 16.094-24.962 16.888-45.715 20.996-3.783 9.64-6.713 19.856-9.776 29.759-11.059 35.762-26.191 69.207-46.675 100.554 2.325 3.13 3.649 4.964 5.545 8.336 14.657-4.835 28.533-9.204 42.618-15.62 36.961-15.994 68.916-35.734 98.63-62.947 4.712-4.315 11.732-10.567 15.977-15.256-7.577-13.443-9.703-21.903-7.079-37.174zM624.974 318.552c7.154.342 14.198.459 21.309 1.65 5.478.918 10.447 4.037 15.617 4.534 2.175.209 5.139-1.692 6.611-3.24 6.459-6.792 12.586-14.487 18.743-21.57 7.321-8.541 20.328-24.461 27.781-31.917-6.121-12.313-7.548-25.221-2.985-38.408-43.881-30.39-93.62-48.733-145.885-57.846-3.273-.571-7.428-1.018-10.518-1.818-1.504 6.194-2.976 9.73-5.405 15.612 20.552 26.329 38.412 57.809 53.26 87.623 7.243 14.543 13.169 31.799 21.472 45.38zm-428.221 42.589c3.425-.982 3.163-.703 5.089-3.69 1.885-2.923 4.965-14.288 4.447-17.093-1.844 3.63-9.765 18.369-9.536 20.783z" />
</svg>