<?xml version="1.0" encoding="UTF-8"?>
<!--Generator: Apple Native CoreSVG 341-->
<!DOCTYPE svg
PUBLIC "-//W3C//DTD SVG 1.1//EN"
       "http://www.w3.org/Graphics/SVG/1.1/DTD/svg11.dtd">
<svg version="1.1" xmlns="http://www.w3.org/2000/svg" xmlns:xlink="http://www.w3.org/1999/xlink" viewBox="0 0 3300 2200">
 <!--glyph: "", point size: 100.0, font version: "21.1d1e1", template writer version: "138.0.0"-->
 <style>.defaults {-sfsymbols-variable-value-mode:color;-sfsymbols-draw-reverses-motion-groups:false}

.monochrome-0 {-sfsymbols-motion-group:0;-sfsymbols-layer-tags:-1b131f47c8213c96}

.multicolor-0:systemBlueColor {-sfsymbols-motion-group:0;-sfsymbols-layer-tags:-1b131f47c8213c96}

.hierarchical-0:primary {-sfsymbols-motion-group:0;-sfsymbols-layer-tags:-1b131f47c8213c96}

.SFSymbolsPreviewWireframe {fill:none;opacity:1.0;stroke:black;stroke-width:0.5}
</style>
 <g id="Notes">
  <rect height="2200" id="artboard" style="fill:white;opacity:1" width="3300" x="0" y="0"/>
  <line style="fill:none;stroke:black;opacity:1;stroke-width:0.5;" x1="263" x2="3036" y1="292" y2="292"/>
  <text style="stroke:none;fill:black;font-family:sans-serif;font-size:13;font-weight:bold;" transform="matrix(1 0 0 1 263 322)">Weight/Scale Variations</text>
  <text style="stroke:none;fill:black;font-family:sans-serif;font-size:13;text-anchor:middle;" transform="matrix(1 0 0 1 559.711 322)">Ultralight</text>
  <text style="stroke:none;fill:black;font-family:sans-serif;font-size:13;text-anchor:middle;" transform="matrix(1 0 0 1 856.422 322)">Thin</text>
  <text style="stroke:none;fill:black;font-family:sans-serif;font-size:13;text-anchor:middle;" transform="matrix(1 0 0 1 1153.13 322)">Light</text>
  <text style="stroke:none;fill:black;font-family:sans-serif;font-size:13;text-anchor:middle;" transform="matrix(1 0 0 1 1449.84 322)">Regular</text>
  <text style="stroke:none;fill:black;font-family:sans-serif;font-size:13;text-anchor:middle;" transform="matrix(1 0 0 1 1746.56 322)">Medium</text>
  <text style="stroke:none;fill:black;font-family:sans-serif;font-size:13;text-anchor:middle;" transform="matrix(1 0 0 1 2043.27 322)">Semibold</text>
  <text style="stroke:none;fill:black;font-family:sans-serif;font-size:13;text-anchor:middle;" transform="matrix(1 0 0 1 2339.98 322)">Bold</text>
  <text style="stroke:none;fill:black;font-family:sans-serif;font-size:13;text-anchor:middle;" transform="matrix(1 0 0 1 2636.69 322)">Heavy</text>
  <text style="stroke:none;fill:black;font-family:sans-serif;font-size:13;text-anchor:middle;" transform="matrix(1 0 0 1 2933.4 322)">Black</text>
  <line style="fill:none;stroke:black;opacity:1;stroke-width:0.5;" x1="263" x2="3036" y1="1903" y2="1903"/>
  <g transform="matrix(0.2 0 0 0.2 263 1933)">
   <path d="m46.2402 4.15039c21.7773 0 39.4531-17.627 39.4531-39.4043s-17.6758-39.4043-39.4531-39.4043c-21.7285 0-39.4043 17.627-39.4043 39.4043s17.6758 39.4043 39.4043 39.4043Zm0-7.42188c-17.6758 0-31.9336-14.3066-31.9336-31.9824s14.2578-31.9824 31.9336-31.9824 31.9824 14.3066 31.9824 31.9824-14.3066 31.9824-31.9824 31.9824Zm3.61328-17.7734v-28.4668c0-2.24609-1.46484-3.75977-3.71094-3.75977-2.14844 0-3.61328 1.51367-3.61328 3.75977v28.4668c0 2.19727 1.46484 3.71094 3.61328 3.71094 2.24609 0 3.71094-1.51367 3.71094-3.71094Zm-17.8223-10.5957h28.418c2.19727 0 3.71094-1.46484 3.71094-3.61328 0-2.19727-1.51367-3.71094-3.71094-3.71094h-28.418c-2.24609 0-3.75977 1.51367-3.75977 3.71094 0 2.14844 1.51367 3.61328 3.75977 3.61328Z"/>
  </g>
  <g transform="matrix(0.2 0 0 0.2 281.506 1933)">
   <path d="m58.5449 14.5508c27.4902 0 49.8047-22.3145 49.8047-49.8047s-22.3145-49.8047-49.8047-49.8047-49.8047 22.3145-49.8047 49.8047 22.3145 49.8047 49.8047 49.8047Zm0-8.30078c-22.9492 0-41.5039-18.5547-41.5039-41.5039s18.5547-41.5039 41.5039-41.5039 41.5039 18.5547 41.5039 41.5039-18.5547 41.5039-41.5039 41.5039Zm4.05273-23.0957v-36.9141c0-2.49023-1.70898-4.19922-4.15039-4.19922-2.39258 0-4.05273 1.70898-4.05273 4.19922v36.9141c0 2.44141 1.66016 4.15039 4.05273 4.15039 2.44141 0 4.15039-1.66016 4.15039-4.15039Zm-22.5586-14.4043h36.9629c2.44141 0 4.15039-1.61133 4.15039-4.00391 0-2.44141-1.70898-4.15039-4.15039-4.15039h-36.9629c-2.49023 0-4.15039 1.70898-4.15039 4.15039 0 2.39258 1.66016 4.00391 4.15039 4.00391Z"/>
  </g>
  <g transform="matrix(0.2 0 0 0.2 304.924 1933)">
   <path d="m74.8535 28.3203c35.1074 0 63.623-28.4668 63.623-63.5742s-28.5156-63.623-63.623-63.623-63.5742 28.5156-63.5742 63.623 28.4668 63.5742 63.5742 63.5742Zm0-9.08203c-30.127 0-54.4922-24.3652-54.4922-54.4922s24.3652-54.4922 54.4922-54.4922 54.4922 24.3652 54.4922 54.4922-24.3652 54.4922-54.4922 54.4922Zm4.44336-30.3223v-48.4863c0-2.73438-1.85547-4.63867-4.54102-4.63867-2.58789 0-4.44336 1.9043-4.44336 4.63867v48.4863c0 2.68555 1.85547 4.58984 4.44336 4.58984 2.68555 0 4.54102-1.85547 4.54102-4.58984Zm-28.7109-19.7754h48.4863c2.68555 0 4.58984-1.80664 4.58984-4.39453 0-2.73438-1.85547-4.58984-4.58984-4.58984h-48.4863c-2.73438 0-4.58984 1.85547-4.58984 4.58984 0 2.58789 1.85547 4.39453 4.58984 4.39453Z"/>
  </g>
  <text style="stroke:none;fill:black;font-family:sans-serif;font-size:13;font-weight:bold;" transform="matrix(1 0 0 1 263 1953)">Design Variations</text>
  <text style="stroke:none;fill:black;font-family:sans-serif;font-size:13;" transform="matrix(1 0 0 1 263 1971)">Symbols are supported in up to nine weights and three scales.</text>
  <text style="stroke:none;fill:black;font-family:sans-serif;font-size:13;" transform="matrix(1 0 0 1 263 1989)">For optimal layout with text and other symbols, vertically align</text>
  <text style="stroke:none;fill:black;font-family:sans-serif;font-size:13;" transform="matrix(1 0 0 1 263 2007)">symbols with the adjacent text.</text>
  <line style="fill:none;stroke:#00AEEF;stroke-width:0.5;opacity:1.0;" x1="776" x2="776" y1="1919" y2="1933"/>
  <g transform="matrix(0.2 0 0 0.2 776 1933)">
   <path d="m16.5527 0.78125c2.58789 0 3.85742-0.976562 4.78516-3.71094l20.5566-57.5195h0.244141l20.6055 57.5195c0.927734 2.73438 2.19727 3.71094 4.73633 3.71094 2.58789 0 4.24805-1.5625 4.24805-4.00391 0-0.830078-0.146484-1.61133-0.537109-2.63672l-22.9004-60.9863c-1.12305-2.97852-3.125-4.49219-6.25-4.49219-3.02734 0-5.07812 1.46484-6.15234 4.44336l-22.9004 61.084c-0.390625 1.02539-0.537109 1.80664-0.537109 2.63672 0 2.44141 1.5625 3.95508 4.10156 3.95508Zm10.2051-20.9473h30.6641c2.00195 0 3.66211-1.66016 3.66211-3.66211 0-2.05078-1.66016-3.66211-3.66211-3.66211h-30.6641c-2.00195 0-3.66211 1.61133-3.66211 3.66211 0 2.00195 1.66016 3.66211 3.66211 3.66211Z"/>
  </g>
  <line style="fill:none;stroke:#00AEEF;stroke-width:0.5;opacity:1.0;" x1="792.836" x2="792.836" y1="1919" y2="1933"/>
  <text style="stroke:none;fill:black;font-family:sans-serif;font-size:13;font-weight:bold;" transform="matrix(1 0 0 1 776 1953)">Margins</text>
  <text style="stroke:none;fill:black;font-family:sans-serif;font-size:13;" transform="matrix(1 0 0 1 776 1971)">Leading and trailing margins on the left and right side of each symbol</text>
  <text style="stroke:none;fill:black;font-family:sans-serif;font-size:13;" transform="matrix(1 0 0 1 776 1989)">can be adjusted by modifying the x-location of the margin guidelines.</text>
  <text style="stroke:none;fill:black;font-family:sans-serif;font-size:13;" transform="matrix(1 0 0 1 776 2007)">Modifications are automatically applied proportionally to all</text>
  <text style="stroke:none;fill:black;font-family:sans-serif;font-size:13;" transform="matrix(1 0 0 1 776 2025)">scales and weights.</text>
  <g transform="matrix(0.2 0 0 0.2 1289 1933)">
   <path d="m14.209 13.1348 7.86133 7.86133c4.29688 4.39453 9.32617 4.10156 13.8672-1.02539l60.6934-68.2129-4.88281-4.88281-60.2539 67.6758c-1.80664 1.95312-3.4668 2.44141-5.81055 0.0976562l-5.17578-5.12695c-2.29492-2.29492-1.80664-3.95508 0.195312-5.81055l67.4805-62.1582-4.88281-4.83398-68.0664 62.5977c-4.98047 4.58984-5.32227 9.47266-1.02539 13.8184Zm44.873-97.4609c-2.05078 2.00195-2.24609 4.88281-1.07422 6.78711 1.12305 1.80664 3.4668 3.02734 6.5918 2.24609 5.85938-1.66016 12.5977-2.39258 18.8965 0.927734l-2.68555 7.12891c-1.61133 4.00391-0.732422 6.88477 1.70898 9.42383l10.2539 10.3027c2.34375 2.39258 4.54102 2.44141 7.08008 1.95312l4.44336-0.732422 2.58789 2.53906-0.195312 2.24609c-0.0976562 2.29492 0.537109 4.29688 2.7832 6.49414l3.36914 3.32031c2.29492 2.29492 5.51758 2.49023 7.8125 0.195312l12.9883-13.0371c2.29492-2.34375 2.14844-5.37109-0.195312-7.66602l-3.41797-3.41797c-2.19727-2.19727-4.05273-3.02734-6.34766-2.88086l-2.34375 0.244141-2.44141-2.44141 1.02539-4.6875c0.634766-2.73438-0.244141-4.98047-2.88086-7.61719l-11.2793-11.1816c-12.9395-12.8418-35.5957-11.0352-46.6797-0.146484Zm7.08008 2.05078c8.78906-6.39648 25.9766-5.66406 33.6914 1.95312l12.3047 12.207c1.02539 1.02539 1.2207 1.80664 0.927734 3.32031l-1.46484 6.64062 6.73828 6.68945 4.39453-0.244141c1.12305-0.0488281 1.51367 0.0488281 2.34375 0.878906l2.53906 2.49023-10.8398 10.8398-2.49023-2.49023c-0.830078-0.878906-0.976562-1.2207-0.927734-2.39258l0.292969-4.3457-6.68945-6.73828-6.83594 1.17188c-1.41602 0.292969-2.05078 0.195312-3.17383-0.878906l-8.93555-8.88672c-1.07422-1.02539-1.17188-1.70898-0.488281-3.36914l4.58984-11.4746c-6.10352-6.34766-17.041-7.51953-25.5859-4.58984-0.683594 0.244141-0.927734-0.390625-0.390625-0.78125Z"/>
  </g>
  <text style="stroke:none;fill:black;font-family:sans-serif;font-size:13;font-weight:bold;" transform="matrix(1 0 0 1 1289 1953)">Exporting</text>
  <text style="stroke:none;fill:black;font-family:sans-serif;font-size:13;" transform="matrix(1 0 0 1 1289 1971)">Symbols should be outlined when exporting to ensure the</text>
  <text style="stroke:none;fill:black;font-family:sans-serif;font-size:13;" transform="matrix(1 0 0 1 1289 1989)">design is preserved when submitting to Xcode.</text>
  <text id="template-version" style="stroke:none;fill:black;font-family:sans-serif;font-size:13;text-anchor:end;" transform="matrix(1 0 0 1 3036 1933)">Template v.7.0</text>
  <text style="stroke:none;fill:black;font-family:sans-serif;font-size:13;text-anchor:end;" transform="matrix(1 0 0 1 3036 1951)">Requires Xcode 26 or greater</text>
  <text id="descriptive-name" style="stroke:none;fill:black;font-family:sans-serif;font-size:13;text-anchor:end;" transform="matrix(1 0 0 1 3036 1969)">Generated from network-1</text>
  <text style="stroke:none;fill:black;font-family:sans-serif;font-size:13;text-anchor:end;" transform="matrix(1 0 0 1 3036 1987)">Typeset at 100.0 points</text>
  <text style="stroke:none;fill:black;font-family:sans-serif;font-size:13;" transform="matrix(1 0 0 1 263 726)">Small</text>
  <text style="stroke:none;fill:black;font-family:sans-serif;font-size:13;" transform="matrix(1 0 0 1 263 1156)">Medium</text>
  <text style="stroke:none;fill:black;font-family:sans-serif;font-size:13;" transform="matrix(1 0 0 1 263 1586)">Large</text>
 </g>
 <g id="Guides">
  <g id="H-reference" style="fill:#27AAE1;stroke:none;" transform="matrix(1 0 0 1 339 696)">
   <path d="M0.993654 0L3.63775 0L29.3281-67.1323L30.0303-67.1323L30.0303-70.459L28.1226-70.459ZM11.6885-24.4799L46.9815-24.4799L46.2315-26.7285L12.4385-26.7285ZM55.1196 0L57.7637 0L30.6382-70.459L29.4326-70.459L29.4326-67.1323Z"/>
  </g>
  <line id="Baseline-S" style="fill:none;stroke:#27AAE1;opacity:1;stroke-width:0.5;" x1="263" x2="3036" y1="696" y2="696"/>
  <line id="Capline-S" style="fill:none;stroke:#27AAE1;opacity:1;stroke-width:0.5;" x1="263" x2="3036" y1="625.541" y2="625.541"/>
  <g id="H-reference" style="fill:#27AAE1;stroke:none;" transform="matrix(1 0 0 1 339 1126)">
   <path d="M0.993654 0L3.63775 0L29.3281-67.1323L30.0303-67.1323L30.0303-70.459L28.1226-70.459ZM11.6885-24.4799L46.9815-24.4799L46.2315-26.7285L12.4385-26.7285ZM55.1196 0L57.7637 0L30.6382-70.459L29.4326-70.459L29.4326-67.1323Z"/>
  </g>
  <line id="Baseline-M" style="fill:none;stroke:#27AAE1;opacity:1;stroke-width:0.5;" x1="263" x2="3036" y1="1126" y2="1126"/>
  <line id="Capline-M" style="fill:none;stroke:#27AAE1;opacity:1;stroke-width:0.5;" x1="263" x2="3036" y1="1055.54" y2="1055.54"/>
  <g id="H-reference" style="fill:#27AAE1;stroke:none;" transform="matrix(1 0 0 1 339 1556)">
   <path d="M0.993654 0L3.63775 0L29.3281-67.1323L30.0303-67.1323L30.0303-70.459L28.1226-70.459ZM11.6885-24.4799L46.9815-24.4799L46.2315-26.7285L12.4385-26.7285ZM55.1196 0L57.7637 0L30.6382-70.459L29.4326-70.459L29.4326-67.1323Z"/>
  </g>
  <line id="Baseline-L" style="fill:none;stroke:#27AAE1;opacity:1;stroke-width:0.5;" x1="263" x2="3036" y1="1556" y2="1556"/>
  <line id="Capline-L" style="fill:none;stroke:#27AAE1;opacity:1;stroke-width:0.5;" x1="263" x2="3036" y1="1485.54" y2="1485.54"/>
  <line id="right-margin-Black-S" style="fill:none;stroke:#00AEEF;stroke-width:0.5;opacity:1.0;" x1="2982.23" x2="2982.23" y1="600.785" y2="720.121"/>
  <line id="left-margin-Black-S" style="fill:none;stroke:#00AEEF;stroke-width:0.5;opacity:1.0;" x1="2884.57" x2="2884.57" y1="600.785" y2="720.121"/>
  <line id="right-margin-Regular-S" style="fill:none;stroke:#00AEEF;stroke-width:0.5;opacity:1.0;" x1="1496.11" x2="1496.11" y1="600.785" y2="720.121"/>
  <line id="left-margin-Regular-S" style="fill:none;stroke:#00AEEF;stroke-width:0.5;opacity:1.0;" x1="1403.58" x2="1403.58" y1="600.785" y2="720.121"/>
  <line id="right-margin-Ultralight-S" style="fill:none;stroke:#00AEEF;stroke-width:0.5;opacity:1.0;" x1="603.773" x2="603.773" y1="600.785" y2="720.121"/>
  <line id="left-margin-Ultralight-S" style="fill:none;stroke:#00AEEF;stroke-width:0.5;opacity:1.0;" x1="515.649" x2="515.649" y1="600.785" y2="720.121"/>
 </g>
 <g id="Symbols">
  <g id="Black-S" transform="matrix(1.4 0 0 1.4 2866.57 710)">
   <path class="monochrome-0 multicolor-0:systemBlueColor hierarchical-0:primary SFSymbolsPreviewWireframe" d="M48.2052-74.4032C49.0928-74.4651 49.9801-74.276 50.7652-73.8573C52.012-73.1967 52.5632-72.2905 52.9581-70.99C57.0099-70.5563 61.7131-69.0264 65.3298-67.1858C66.602-66.5384 67.9854-65.7092 69.2269-64.9808C69.732-65.4294 70.2141-65.7389 70.8634-65.9533C72.0081-66.3283 73.2562-66.2332 74.3309-65.6891C75.436-65.1406 76.2728-64.1668 76.649-62.9917C77.1227-61.5259 76.7987-60.3229 76.123-59.003C77.1996-57.551 78.2941-56.0619 79.2311-54.5182C81.8938-50.0401 83.6438-45.079 84.3802-39.9214C85.0456-39.8257 85.5099-39.7158 86.0981-39.3655C87.0524-38.7995 87.737-37.8693 87.9935-36.7898C88.2851-35.6218 88.0858-34.3839 87.4426-33.3664C86.7006-32.1683 85.7656-31.7912 84.4687-31.4924C83.89-27.8114 83.1439-24.6734 81.6566-21.2303C81.056-19.8399 80.4219-18.5752 79.7451-17.2212C80.4791-15.8728 80.785-14.7453 80.2363-13.2497C79.8405-12.1774 79.0332-11.3059 77.9943-10.8295C76.7982-10.288 75.7304-10.4481 74.541-10.9053C70.2901-6.28926 64.1304-2.78487 58.0919-1.1462C57.9675 0.13132 57.4422 1.32634 56.4477 2.16516C55.5918 2.90179 54.4713 3.25809 53.3471 3.15115C52.0429 3.02938 50.9536 2.40754 50.1191 1.41233C49.8232 1.0127 49.6797 0.722915 49.5507 0.248922C48.1154 0.339862 45.2409 0.0397013 43.8081-0.171749C36.5049-1.24965 30.4991-4.18184 24.8034-8.81638C24.1209-8.45117 23.6624-8.20676 22.8753-8.10292C21.6179-7.94722 20.3486-8.29595 19.3473-9.07234C17.1904-10.7433 17.0325-13.7972 18.6877-15.8907C18.2965-16.43 17.8125-17.2988 17.4759-17.8778C15.2334-21.7365 13.8005-26.2964 13.0442-30.6936C12.2934-30.8469 11.6397-31.0418 10.9909-31.4606C9.05895-32.7072 8.69839-35.5192 9.97659-37.3598C10.6943-38.3934 11.6094-38.8532 12.8242-39.0785C13.56-44.9185 15.4995-50.3607 18.6562-55.3177C19.4254-56.5257 20.4897-58.1592 21.4469-59.224C20.9249-59.8457 20.5807-60.5703 20.4661-61.3767C20.3087-62.4675 20.5988-63.5769 21.2702-64.4508C22.215-65.6971 23.8987-66.4054 25.4436-66.1139C26.2809-65.9559 26.8436-65.64 27.5071-65.1247C28.1501-65.6066 29.6214-66.3965 30.3582-66.8064C34.9056-69.3359 38.9604-70.4075 44.0594-71.1285C44.7267-73.1729 46.1148-74.147 48.2052-74.4032ZM49.1769-28.0632C50.9433-27.3809 52.7218-26.7298 54.5113-26.1106C55.508-25.7582 57.2452-25.0433 58.2515-25.0757C58.9108-25.4782 59.0522-25.9784 59.6952-26.486C60.3663-27.0157 61.3649-27.2449 61.8424-27.8801C61.9954-28.9667 61.9599-30.1031 61.9297-31.1988C61.8811-32.9591 61.3517-42.3058 60.6535-43.3151C60.5919-43.4041 60.5094-43.4785 60.4324-43.5538C59.8587-43.6758 59.1436-43.8022 58.6071-44.0021C57.8795-44.2734 57.3301-45.0963 56.4987-45.0487C55.3467-44.4566 54.1765-43.6533 53.0834-42.944C51.7164-42.0576 50.3428-41.1815 48.9626-40.3158L43.9968-37.1825C43.0265-36.5748 42.0459-35.985 41.1039-35.3303C40.5267-34.9838 40.5948-34.0687 40.6119-33.4827C40.6211-33.1716 40.6536-32.2381 40.8222-32.0075C41.5153-31.0595 43.5456-30.4027 44.5606-29.9575C46.1207-29.2732 47.6342-28.6454 49.1769-28.0632ZM17.9137-43.6318C16.8703-42.0099 15.9774-40.2769 15.3765-38.4395C16.3132-37.7957 16.9588-36.8074 17.172-35.691C17.371-34.5283 17.0961-33.333 16.409-32.3741C16.0007-31.8019 15.5608-31.4635 14.9712-31.0959C15.6668-26.9736 16.7419-23.3365 18.7139-19.6132C19.125-18.8371 19.7372-17.7514 20.2609-17.0557C20.9578-17.266 21.4638-17.3336 22.1852-17.311L22.3987-17.8153C23.7781-20.8533 25.5379-23.7038 27.6357-26.2983C28.4914-27.3714 29.8726-28.8484 30.6022-29.9275C30.4629-30.4839 30.2806-30.9277 30.1157-31.4668C29.7243-32.7465 29.9754-33.745 30.2813-34.9932C29.6861-35.8047 28.4385-36.6545 27.6087-37.3152C26.7396-38.0004 25.8937-38.7143 25.0722-39.4559C24.2143-40.2361 23.3726-41.0338 22.5475-41.8487C22.2765-42.1168 20.8439-43.6201 20.6693-43.7165C19.6545-43.3869 18.9383-43.2675 17.9137-43.6318ZM36.1677-50.9609C35.8877-49.4981 35.6641-39.4689 36.2658-38.6735C36.4865-38.3818 38.5466-37.3106 38.9772-37.1182C39.1435-37.044 39.3189-37.0011 39.4956-36.96C40.5686-37.4706 41.8837-38.3343 42.892-38.9776L47.1308-41.6906C48.7232-42.7221 50.3248-43.7391 51.9354-44.7417C52.951-45.3787 54.0852-46.0087 55.0102-46.7709C55.1664-46.8994 55.2811-46.995 55.3242-47.2004C55.4456-47.7803 55.2765-49.2511 54.9458-49.7347C54.3579-50.5942 46.2722-52.3761 44.8665-52.6626C43.4693-52.9473 42.0475-53.2055 40.6351-53.3995C40.2343-53.4546 39.8404-53.4983 39.4353-53.4709C38.946-52.9876 38.6439-52.3429 38.087-51.9064C37.5173-51.4596 36.8432-51.2023 36.1677-50.9609ZM76.5905-36.4101C75.9262-35.4086 75.3802-34.2875 74.7815-33.2501C72.9999-30.1627 70.3902-27.703 68.1775-24.953C68.0226-24.7604 68.4365-23.5345 68.4819-23.2465C68.6902-22.2721 68.5464-21.33 68.2783-20.3845C69.3456-19.7107 70.4308-19.1201 71.5459-18.5305C71.7097-18.4438 71.9212-18.3409 72.0749-18.2424C72.455-18.0376 72.9699-17.7801 73.3287-17.5608C74.8489-18.9028 76.2635-19.2734 78.1761-18.4947C78.6578-19.3221 79.1123-20.343 79.5114-21.2161C81.0851-24.6595 82.0939-28.0147 82.5046-31.7753C80.3221-33.27 79.66-34.5607 80.2845-37.2168C80.0157-37.3151 79.8834-37.376 79.6287-37.5028C78.6628-36.5935 77.878-36.4201 76.5905-36.4101ZM40.619-16.8763C42.4841-16.6356 42.4638-16.4839 43.7171-15.3327C45.4365-15.6706 47.4098-16.3485 49.0592-16.942C50.162-17.3389 51.5308-17.8354 52.5952-18.2967C53.5031-18.6862 54.4077-19.0835 55.3087-19.4886C55.8979-19.7546 57.2189-20.2528 57.4698-20.8948C57.6202-21.2795 57.5359-22.1586 57.367-22.5294C57.1648-23.0136 56.6579-23.1436 56.194-23.305C54.2422-23.9844 52.2408-24.6066 50.3099-25.3396C48.2913-26.0962 46.2888-26.8947 44.3036-27.735C43.1514-28.2254 40.7201-29.4659 39.6201-29.4776C39.1744-29.2182 37.9196-28.1391 37.8067-27.659C37.5055-26.3781 39.8853-18.2358 40.619-16.8763ZM38.8099-58.3405C39.0471-57.965 39.2029-57.7226 39.405-57.2851C39.6333-56.7907 39.6949-56.1327 40.0058-55.6876C40.0189-55.6689 40.3223-55.578 40.3784-55.5682C41.6413-55.3482 42.8929-55.2089 44.1582-54.9737C46.8877-54.4693 49.5896-53.826 52.2536-53.0466C53.2524-52.7205 54.9274-52.0973 55.912-52.1225C56.5279-52.5079 57.1124-53.1762 57.5807-53.7294C56.7098-56.822 53.0309-63.6037 50.9289-66.1289C49.0628-65.2662 47.4143-65.1872 45.7004-66.4768C43.673-64.8607 41.6701-62.3419 40.1131-60.2784C39.7468-59.7929 39.0709-58.8633 38.8099-58.3405ZM24.2351-16.64C25.4562-15.999 26.4212-14.4931 26.4659-13.1076C27.8655-13.0248 29.0589-12.9512 30.4649-13.0029C32.184-13.0818 35.627-13.2844 37.2385-13.7665C37.5921-14.7977 37.7056-15.3057 38.532-16.0481C37.8636-17.9772 37.2605-19.9283 36.7241-21.8983C36.4369-22.9563 36.1699-24.0198 35.9233-25.088C35.774-25.7174 35.6204-26.6958 35.2763-27.2119C35.1094-27.2984 32.3607-28.2805 32.2064-28.2872C31.6012-27.8833 31.1998-27.3853 30.7441-26.8248C28.218-23.7184 25.7813-20.3546 24.2351-16.64ZM66.3346-26.6809C67.3781-27.1444 68.7659-28.8382 69.535-29.7518C71.4351-32.0291 73.3465-34.5929 74.5415-37.3205C73.782-38.4563 73.3666-39.324 73.643-40.7271C73.6627-40.826 73.6834-40.9247 73.7051-41.0232C72.2025-42.121 66.9642-45.6503 65.2102-45.8073C64.887-45.6026 63.1254-44.1052 63.0989-43.7959C62.9929-42.5647 63.3711-40.5782 63.5179-39.3296C63.6326-38.294 63.7363-37.2573 63.8292-36.2196C63.9923-34.3446 64.0882-32.4645 64.1168-30.5827C64.1429-28.2973 63.7919-27.489 66.3346-26.6809ZM36.8138-11.4835C33.3947-11.0946 29.8468-10.6989 26.4016-11.0538L26.1047-10.3085C29.739-6.98857 35.4938-4.04087 40.258-2.85341C43.208-2.04678 46.2578-1.66421 49.3156-1.71715C49.3907-2.09497 49.4365-2.28644 49.5702-2.64943C47.3569-4.48384 45.4126-6.17428 43.565-8.40764C43.2319-8.81028 42.6875-9.3882 42.4013-9.79549C41.1842-9.50144 40.1442-9.38985 39.0046-10.0268C38.0802-10.5435 37.936-11.6049 36.8138-11.4835ZM65.1041-52.446C65.7166-51.5106 66.0991-50.5678 66.154-49.442C66.1694-49.1274 66.0985-48.7446 66.1773-48.4423C66.3766-47.6776 69.9383-46.0602 70.7357-45.6018C71.35-45.2487 71.9368-44.7584 72.5697-44.4543C73.1026-44.093 74.2948-43.3399 74.7605-42.9563C75.1725-43.2216 75.4402-43.3987 75.9006-43.5719C75.7905-47.9162 74.9361-53.5356 73.0606-57.4919C72.0943-57.3782 70.8362-57.6114 70.0424-58.1978C69.1039-57.0175 68.1306-55.8653 67.124-54.7426C66.4928-54.0323 65.6808-53.1797 65.1041-52.446ZM81.9891-39.3613L82.5198-39.6065C82.2498-40.9102 82.0214-42.1807 81.696-43.4722C80.7465-47.2415 79.3216-50.9868 77.1663-54.24C76.9182-54.6143 76.1193-55.892 75.7961-56.119C76.0215-55.6345 76.3064-54.5827 76.4602-54.0417C77.0595-51.9063 77.4931-49.7277 77.7572-47.5255C77.903-46.2346 77.9718-44.8782 78.0606-43.5786C79.9314-42.6681 80.6595-41.4921 80.4941-39.4244L81.3786-38.9438C81.5813-39.0868 81.7786-39.2296 81.9891-39.3613ZM31.3739-52.7031C28.7422-51.9557 24.6282-50.0127 22.4931-48.3071C22.7639-47.1064 22.706-46.3934 22.2485-45.2383C23.3646-43.8631 24.7241-42.6429 26.0123-41.4324C26.4758-40.997 27.3445-40.332 27.7297-39.9208C28.5945-39.2103 30.6641-37.3837 31.6073-37.0726C32.0882-37.266 33.6034-38.0673 33.7337-38.5101C33.9644-39.2944 33.7749-41.1682 33.7343-42.0603C33.6592-43.7018 33.6621-45.3458 33.7431-46.987C33.7974-48.1729 34.0009-49.7959 33.8431-50.9217C33.4743-51.2705 32.8113-51.569 32.3689-51.9293C32.1047-52.1445 31.7168-52.6462 31.5443-52.7152L31.3739-52.7031ZM27.7925-59.5093C26.77-58.5032 25.9859-58.0007 24.515-58.0193C24.2033-58.0261 23.8921-58.0488 23.5826-58.0872C22.5247-55.922 21.6411-53.8023 21.0668-51.4525C20.9723-51.066 20.8104-50.6595 20.9361-50.2648C21.2936-49.9111 22.715-50.9933 23.1197-51.2539C25.7208-52.6971 28.0102-53.8479 30.8495-54.786C30.8576-55.519 30.8716-56.1611 31.0999-56.8728C29.9194-58.0341 29.1957-58.6068 27.7925-59.5093ZM28.5954-63.5437C28.8448-62.5936 28.8565-62.3182 28.7651-61.3308C29.4569-60.8419 30.1785-60.2724 30.8496-59.8083C31.2776-59.45 31.8857-58.9655 32.2665-58.5855C33.6188-59.9822 35.2082-59.9463 36.9761-59.6139C37.5387-60.1614 38.3927-61.4615 38.9132-62.1547C40.1753-63.8439 41.5786-65.4228 43.1082-66.8742C43.4074-67.1592 43.9582-67.6975 44.2832-67.9294C44.1632-68.3188 44.0825-68.9043 43.8041-69.1257C43.6457-69.1515 43.6229-69.1403 43.4668-69.1198C39.5807-68.7476 35.1862-67.1454 31.7283-65.3688C30.6696-64.8248 29.6147-64.1635 28.5954-63.5437ZM55.6309-5.14262C57.4098-8.05794 58.712-10.804 59.7337-14.0669C60.0964-15.225 60.4076-15.9622 60.5149-17.2009C59.9548-17.6281 58.9581-18.5077 58.2437-18.4853C55.8364-17.4887 53.713-16.3467 51.2007-15.412C50.1267-15.012 49.0438-14.6365 47.9528-14.2854C46.9584-13.9754 45.3193-13.5711 44.4695-13.0924C44.3003-12.3718 44.149-12.0313 43.9644-11.3903C45.1737-9.68894 46.9527-7.76573 48.4774-6.33075C49.0916-5.76126 49.9921-4.89074 50.7139-4.48665C52.3361-5.60818 53.7617-5.97591 55.6309-5.14262ZM72.3496-15.725C70.669-16.6148 68.8066-17.5672 67.1603-18.5025C65.7251-16.9421 64.7402-16.8652 62.7282-16.4669C62.3614-15.5323 62.0774-14.5418 61.7804-13.5817C60.7082-10.1146 59.2412-6.87203 57.2552-3.83291C57.4806-3.52945 57.609-3.35164 57.7928-3.02473C59.2138-3.49348 60.5591-3.91706 61.9247-4.5391C65.5081-6.08973 68.6062-8.00355 71.487-10.6419C71.9438-11.0602 72.6244-11.6664 73.0359-12.121C72.3013-13.4243 72.0952-14.2445 72.3496-15.725ZM59.7537-54.6399C60.4472-54.6067 61.1302-54.5954 61.8196-54.4799C62.3507-54.3909 62.8324-54.0885 63.3337-54.0403C63.5445-54.0201 63.8319-54.2044 63.9746-54.3545C64.6008-55.013 65.1948-55.759 65.7918-56.4457C66.5015-57.2738 67.7626-58.8172 68.4852-59.5401C67.8917-60.7338 67.7534-61.9853 68.1958-63.2638C63.9415-66.2101 59.1192-67.9885 54.0521-68.872C53.7347-68.9274 53.3319-68.9707 53.0323-69.0483C52.8865-68.4477 52.7438-68.1049 52.5083-67.5347C54.5008-64.982 56.2324-61.93 57.6719-59.0395C58.3741-57.6296 58.9487-55.9566 59.7537-54.6399ZM18.2372-50.5108C18.5693-50.606 18.5439-50.579 18.7306-50.8686C18.9133-51.152 19.2119-52.2538 19.1617-52.5258C18.9829-52.1738 18.215-50.7449 18.2372-50.5108Z"/>
  </g>
  <g id="Regular-S" transform="matrix(1.4 0 0 1.4 1385.58 710)">
   <path class="monochrome-0 multicolor-0:systemBlueColor hierarchical-0:primary SFSymbolsPreviewWireframe" d="M43.1952-74.4032C44.0828-74.4651 44.9701-74.276 45.7552-73.8573C47.002-73.1967 47.5532-72.2905 47.9481-70.99C51.9999-70.5563 56.7031-69.0264 60.3198-67.1858C61.592-66.5384 62.9754-65.7092 64.2169-64.9808C64.722-65.4294 65.2041-65.7389 65.8534-65.9533C66.9981-66.3283 68.2462-66.2332 69.3209-65.6891C70.426-65.1406 71.2628-64.1668 71.639-62.9917C72.1127-61.5259 71.7887-60.3229 71.113-59.003C72.1896-57.551 73.2841-56.0619 74.2211-54.5182C76.8838-50.0401 78.6338-45.079 79.3702-39.9214C80.0356-39.8257 80.4999-39.7158 81.0881-39.3655C82.0424-38.7995 82.727-37.8693 82.9835-36.7898C83.2751-35.6218 83.0758-34.3839 82.4326-33.3664C81.6906-32.1683 80.7556-31.7912 79.4587-31.4924C78.88-27.8114 78.1339-24.6734 76.6466-21.2303C76.046-19.8399 75.4119-18.5752 74.7351-17.2212C75.4691-15.8728 75.775-14.7453 75.2263-13.2497C74.8305-12.1774 74.0232-11.3059 72.9843-10.8295C71.7882-10.288 70.7204-10.4481 69.531-10.9053C65.2801-6.28926 59.1204-2.78487 53.0819-1.1462C52.9575 0.13132 52.4322 1.32634 51.4377 2.16516C50.5818 2.90179 49.4613 3.25809 48.3371 3.15115C47.0329 3.02938 45.9436 2.40754 45.1091 1.41233C44.8132 1.0127 44.6697 0.722915 44.5407 0.248922C43.1054 0.339862 40.2309 0.0397013 38.7981-0.171749C31.4949-1.24965 25.4891-4.18184 19.7934-8.81638C19.1109-8.45117 18.6524-8.20676 17.8653-8.10292C16.6079-7.94722 15.3386-8.29595 14.3373-9.07234C12.1804-10.7433 12.0225-13.7972 13.6777-15.8907C13.2865-16.43 12.8025-17.2988 12.4659-17.8778C10.2234-21.7365 8.79053-26.2964 8.03421-30.6936C7.28343-30.8469 6.62968-31.0418 5.98089-31.4606C4.04895-32.7072 3.68839-35.5192 4.96659-37.3598C5.68432-38.3934 6.59944-38.8532 7.81423-39.0785C8.54999-44.9185 10.4895-50.3607 13.6462-55.3177C14.4154-56.5257 15.4797-58.1592 16.4369-59.224C15.9149-59.8457 15.5707-60.5703 15.4561-61.3767C15.2987-62.4675 15.5888-63.5769 16.2602-64.4508C17.205-65.6971 18.8887-66.4054 20.4336-66.1139C21.2709-65.9559 21.8336-65.64 22.4971-65.1247C23.1401-65.6066 24.6114-66.3965 25.3482-66.8064C29.8956-69.3359 33.9504-70.4075 39.0494-71.1285C39.7167-73.1729 41.1048-74.147 43.1952-74.4032ZM44.1669-28.0632C45.9333-27.3809 47.7118-26.7298 49.5013-26.1106C50.498-25.7582 52.2352-25.0433 53.2415-25.0757C53.9008-25.4782 54.0422-25.9784 54.6852-26.486C55.3563-27.0157 56.3549-27.2449 56.8324-27.8801C56.9854-28.9667 56.9499-30.1031 56.9197-31.1988C56.8711-32.9591 56.3417-42.3058 55.6435-43.3151C55.5819-43.4041 55.4994-43.4785 55.4224-43.5538C54.8487-43.6758 54.1336-43.8022 53.5971-44.0021C52.8695-44.2734 52.3201-45.0963 51.4887-45.0487C50.3367-44.4566 49.1665-43.6533 48.0734-42.944C46.7064-42.0576 45.3328-41.1815 43.9526-40.3158L38.9868-37.1825C38.0165-36.5748 37.0359-35.985 36.0939-35.3303C35.5167-34.9838 35.5848-34.0687 35.6019-33.4827C35.6111-33.1716 35.6436-32.2381 35.8122-32.0075C36.5053-31.0595 38.5356-30.4027 39.5506-29.9575C41.1107-29.2732 42.6242-28.6454 44.1669-28.0632ZM12.9037-43.6318C11.8603-42.0099 10.9674-40.2769 10.3665-38.4395C11.3032-37.7957 11.9488-36.8074 12.162-35.691C12.361-34.5283 12.0861-33.333 11.399-32.3741C10.9907-31.8019 10.5508-31.4635 9.96121-31.0959C10.6568-26.9736 11.7319-23.3365 13.7039-19.6132C14.115-18.8371 14.7272-17.7514 15.2509-17.0557C15.9478-17.266 16.4538-17.3336 17.1752-17.311L17.3887-17.8153C18.7681-20.8533 20.5279-23.7038 22.6257-26.2983C23.4814-27.3714 24.8626-28.8484 25.5922-29.9275C25.4529-30.4839 25.2706-30.9277 25.1057-31.4668C24.7143-32.7465 24.9654-33.745 25.2713-34.9932C24.6761-35.8047 23.4285-36.6545 22.5987-37.3152C21.7296-38.0004 20.8837-38.7143 20.0622-39.4559C19.2043-40.2361 18.3626-41.0338 17.5375-41.8487C17.2665-42.1168 15.8339-43.6201 15.6593-43.7165C14.6445-43.3869 13.9283-43.2675 12.9037-43.6318ZM31.1577-50.9609C30.8777-49.4981 30.6541-39.4689 31.2558-38.6735C31.4765-38.3818 33.5366-37.3106 33.9672-37.1182C34.1335-37.044 34.3089-37.0011 34.4856-36.96C35.5586-37.4706 36.8737-38.3343 37.882-38.9776L42.1208-41.6906C43.7132-42.7221 45.3148-43.7391 46.9254-44.7417C47.941-45.3787 49.0752-46.0087 50.0002-46.7709C50.1564-46.8994 50.2711-46.995 50.3142-47.2004C50.4356-47.7803 50.2665-49.2511 49.9358-49.7347C49.3479-50.5942 41.2622-52.3761 39.8565-52.6626C38.4593-52.9473 37.0375-53.2055 35.6251-53.3995C35.2243-53.4546 34.8304-53.4983 34.4253-53.4709C33.936-52.9876 33.6339-52.3429 33.077-51.9064C32.5073-51.4596 31.8332-51.2023 31.1577-50.9609ZM71.5805-36.4101C70.9162-35.4086 70.3702-34.2875 69.7715-33.2501C67.9899-30.1627 65.3802-27.703 63.1675-24.953C63.0126-24.7604 63.4265-23.5345 63.4719-23.2465C63.6802-22.2721 63.5364-21.33 63.2683-20.3845C64.3356-19.7107 65.4208-19.1201 66.5359-18.5305C66.6997-18.4438 66.9112-18.3409 67.0649-18.2424C67.445-18.0376 67.9599-17.7801 68.3187-17.5608C69.8389-18.9028 71.2535-19.2734 73.1661-18.4947C73.6478-19.3221 74.1023-20.343 74.5014-21.2161C76.0751-24.6595 77.0839-28.0147 77.4946-31.7753C75.3121-33.27 74.65-34.5607 75.2745-37.2168C75.0057-37.3151 74.8734-37.376 74.6187-37.5028C73.6528-36.5935 72.868-36.4201 71.5805-36.4101ZM35.609-16.8763C37.4741-16.6356 37.4538-16.4839 38.7071-15.3327C40.4265-15.6706 42.3998-16.3485 44.0492-16.942C45.152-17.3389 46.5208-17.8354 47.5852-18.2967C48.4931-18.6862 49.3977-19.0835 50.2987-19.4886C50.8879-19.7546 52.2089-20.2528 52.4598-20.8948C52.6102-21.2795 52.5259-22.1586 52.357-22.5294C52.1548-23.0136 51.6479-23.1436 51.184-23.305C49.2322-23.9844 47.2308-24.6066 45.2999-25.3396C43.2813-26.0962 41.2788-26.8947 39.2936-27.735C38.1414-28.2254 35.7101-29.4659 34.6101-29.4776C34.1644-29.2182 32.9096-28.1391 32.7967-27.659C32.4955-26.3781 34.8753-18.2358 35.609-16.8763ZM33.7999-58.3405C34.0371-57.965 34.1929-57.7226 34.395-57.2851C34.6233-56.7907 34.6849-56.1327 34.9958-55.6876C35.0089-55.6689 35.3123-55.578 35.3684-55.5682C36.6313-55.3482 37.8829-55.2089 39.1482-54.9737C41.8777-54.4693 44.5796-53.826 47.2436-53.0466C48.2424-52.7205 49.9174-52.0973 50.902-52.1225C51.5179-52.5079 52.1024-53.1762 52.5707-53.7294C51.6998-56.822 48.0209-63.6037 45.9189-66.1289C44.0528-65.2662 42.4043-65.1872 40.6904-66.4768C38.663-64.8607 36.6601-62.3419 35.1031-60.2784C34.7368-59.7929 34.0609-58.8633 33.7999-58.3405ZM19.2251-16.64C20.4462-15.999 21.4112-14.4931 21.4559-13.1076C22.8555-13.0248 24.0489-12.9512 25.4549-13.0029C27.174-13.0818 30.617-13.2844 32.2285-13.7665C32.5821-14.7977 32.6956-15.3057 33.522-16.0481C32.8536-17.9772 32.2505-19.9283 31.7141-21.8983C31.4269-22.9563 31.1599-24.0198 30.9133-25.088C30.764-25.7174 30.6104-26.6958 30.2663-27.2119C30.0994-27.2984 27.3507-28.2805 27.1964-28.2872C26.5912-27.8833 26.1898-27.3853 25.7341-26.8248C23.208-23.7184 20.7713-20.3546 19.2251-16.64ZM61.3246-26.6809C62.3681-27.1444 63.7559-28.8382 64.525-29.7518C66.4251-32.0291 68.3365-34.5929 69.5315-37.3205C68.772-38.4563 68.3566-39.324 68.633-40.7271C68.6527-40.826 68.6734-40.9247 68.6951-41.0232C67.1925-42.121 61.9542-45.6503 60.2002-45.8073C59.877-45.6026 58.1154-44.1052 58.0889-43.7959C57.9829-42.5647 58.3611-40.5782 58.5079-39.3296C58.6226-38.294 58.7263-37.2573 58.8192-36.2196C58.9823-34.3446 59.0782-32.4645 59.1068-30.5827C59.1329-28.2973 58.7819-27.489 61.3246-26.6809ZM31.8038-11.4835C28.3847-11.0946 24.8368-10.6989 21.3916-11.0538L21.0947-10.3085C24.729-6.98857 30.4838-4.04087 35.248-2.85341C38.198-2.04678 41.2478-1.66421 44.3056-1.71715C44.3807-2.09497 44.4265-2.28644 44.5602-2.64943C42.3469-4.48384 40.4026-6.17428 38.555-8.40764C38.2219-8.81028 37.6775-9.3882 37.3913-9.79549C36.1742-9.50144 35.1342-9.38985 33.9946-10.0268C33.0702-10.5435 32.926-11.6049 31.8038-11.4835ZM60.0941-52.446C60.7066-51.5106 61.0891-50.5678 61.144-49.442C61.1594-49.1274 61.0885-48.7446 61.1673-48.4423C61.3666-47.6776 64.9283-46.0602 65.7257-45.6018C66.34-45.2487 66.9268-44.7584 67.5597-44.4543C68.0926-44.093 69.2848-43.3399 69.7505-42.9563C70.1625-43.2216 70.4302-43.3987 70.8906-43.5719C70.7805-47.9162 69.9261-53.5356 68.0506-57.4919C67.0843-57.3782 65.8262-57.6114 65.0324-58.1978C64.0939-57.0175 63.1206-55.8653 62.114-54.7426C61.4828-54.0323 60.6708-53.1797 60.0941-52.446ZM76.9791-39.3613L77.5098-39.6065C77.2398-40.9102 77.0114-42.1807 76.686-43.4722C75.7365-47.2415 74.3116-50.9868 72.1563-54.24C71.9082-54.6143 71.1093-55.892 70.7861-56.119C71.0115-55.6345 71.2964-54.5827 71.4502-54.0417C72.0495-51.9063 72.4831-49.7277 72.7472-47.5255C72.893-46.2346 72.9618-44.8782 73.0506-43.5786C74.9214-42.6681 75.6495-41.4921 75.4841-39.4244L76.3686-38.9438C76.5713-39.0868 76.7686-39.2296 76.9791-39.3613ZM26.3639-52.7031C23.7322-51.9557 19.6182-50.0127 17.4831-48.3071C17.7539-47.1064 17.696-46.3934 17.2385-45.2383C18.3546-43.8631 19.7141-42.6429 21.0023-41.4324C21.4658-40.997 22.3345-40.332 22.7197-39.9208C23.5845-39.2103 25.6541-37.3837 26.5973-37.0726C27.0782-37.266 28.5934-38.0673 28.7237-38.5101C28.9544-39.2944 28.7649-41.1682 28.7243-42.0603C28.6492-43.7018 28.6521-45.3458 28.7331-46.987C28.7874-48.1729 28.9909-49.7959 28.8331-50.9217C28.4643-51.2705 27.8013-51.569 27.3589-51.9293C27.0947-52.1445 26.7068-52.6462 26.5343-52.7152L26.3639-52.7031ZM22.7825-59.5093C21.76-58.5032 20.9759-58.0007 19.505-58.0193C19.1933-58.0261 18.8821-58.0488 18.5726-58.0872C17.5147-55.922 16.6311-53.8023 16.0568-51.4525C15.9623-51.066 15.8004-50.6595 15.9261-50.2648C16.2836-49.9111 17.705-50.9933 18.1097-51.2539C20.7108-52.6971 23.0002-53.8479 25.8395-54.786C25.8476-55.519 25.8616-56.1611 26.0899-56.8728C24.9094-58.0341 24.1857-58.6068 22.7825-59.5093ZM23.5854-63.5437C23.8348-62.5936 23.8465-62.3182 23.7551-61.3308C24.4469-60.8419 25.1685-60.2724 25.8396-59.8083C26.2676-59.45 26.8757-58.9655 27.2565-58.5855C28.6088-59.9822 30.1982-59.9463 31.9661-59.6139C32.5287-60.1614 33.3827-61.4615 33.9032-62.1547C35.1653-63.8439 36.5686-65.4228 38.0982-66.8742C38.3974-67.1592 38.9482-67.6975 39.2732-67.9294C39.1532-68.3188 39.0725-68.9043 38.7941-69.1257C38.6357-69.1515 38.6129-69.1403 38.4568-69.1198C34.5707-68.7476 30.1762-67.1454 26.7183-65.3688C25.6596-64.8248 24.6047-64.1635 23.5854-63.5437ZM50.6209-5.14262C52.3998-8.05794 53.702-10.804 54.7237-14.0669C55.0864-15.225 55.3976-15.9622 55.5049-17.2009C54.9448-17.6281 53.9481-18.5077 53.2337-18.4853C50.8264-17.4887 48.703-16.3467 46.1907-15.412C45.1167-15.012 44.0338-14.6365 42.9428-14.2854C41.9484-13.9754 40.3093-13.5711 39.4595-13.0924C39.2903-12.3718 39.139-12.0313 38.9544-11.3903C40.1637-9.68894 41.9427-7.76573 43.4674-6.33075C44.0816-5.76126 44.9821-4.89074 45.7039-4.48665C47.3261-5.60818 48.7517-5.97591 50.6209-5.14262ZM67.3396-15.725C65.659-16.6148 63.7966-17.5672 62.1503-18.5025C60.7151-16.9421 59.7302-16.8652 57.7182-16.4669C57.3514-15.5323 57.0674-14.5418 56.7704-13.5817C55.6982-10.1146 54.2312-6.87203 52.2452-3.83291C52.4706-3.52945 52.599-3.35164 52.7828-3.02473C54.2038-3.49348 55.5491-3.91706 56.9147-4.5391C60.4981-6.08973 63.5962-8.00355 66.477-10.6419C66.9338-11.0602 67.6144-11.6664 68.0259-12.121C67.2913-13.4243 67.0852-14.2445 67.3396-15.725ZM54.7437-54.6399C55.4372-54.6067 56.1202-54.5954 56.8096-54.4799C57.3407-54.3909 57.8224-54.0885 58.3237-54.0403C58.5345-54.0201 58.8219-54.2044 58.9646-54.3545C59.5908-55.013 60.1848-55.759 60.7818-56.4457C61.4915-57.2738 62.7526-58.8172 63.4752-59.5401C62.8817-60.7338 62.7434-61.9853 63.1858-63.2638C58.9315-66.2101 54.1092-67.9885 49.0421-68.872C48.7247-68.9274 48.3219-68.9707 48.0223-69.0483C47.8765-68.4477 47.7338-68.1049 47.4983-67.5347C49.4908-64.982 51.2224-61.93 52.6619-59.0395C53.3641-57.6296 53.9387-55.9566 54.7437-54.6399ZM13.2272-50.5108C13.5593-50.606 13.5339-50.579 13.7206-50.8686C13.9033-51.152 14.2019-52.2538 14.1517-52.5258C13.9729-52.1738 13.205-50.7449 13.2272-50.5108Z"/>
  </g>
  <g id="Ultralight-S" transform="matrix(1.4 0 0 1.4 497.649 710)">
   <path class="monochrome-0 multicolor-0:systemBlueColor hierarchical-0:primary SFSymbolsPreviewWireframe" d="M43.1262-73.4032C44.0138-73.4651 44.9011-73.276 45.6862-72.8573C46.933-72.1967 47.4842-71.2905 47.8791-69.99C51.9309-69.5563 56.6341-68.0264 60.2508-66.1858C61.523-65.5384 62.9064-64.7092 64.1479-63.9808C64.653-64.4294 65.1351-64.7389 65.7844-64.9533C66.9291-65.3283 68.1772-65.2332 69.2519-64.6891C70.357-64.1406 71.1938-63.1668 71.57-61.9917C72.0437-60.5259 71.7197-59.3229 71.044-58.003C72.1206-56.551 73.2151-55.0619 74.1521-53.5182C76.8148-49.0401 78.5648-44.079 79.3012-38.9214C79.9666-38.8257 80.4309-38.7158 81.0191-38.3655C81.9734-37.7995 82.658-36.8693 82.9145-35.7898C83.2061-34.6218 83.0068-33.3839 82.3636-32.3664C81.6216-31.1683 80.6866-30.7912 79.3897-30.4924C78.811-26.8114 78.0649-23.6734 76.5776-20.2303C75.977-18.8399 75.3429-17.5752 74.6661-16.2212C75.4001-14.8728 75.706-13.7453 75.1573-12.2497C74.7615-11.1774 73.9542-10.3059 72.9153-9.82948C71.7192-9.288 70.6514-9.44807 69.462-9.90529C65.2111-5.28926 59.0514-1.78487 53.0129-0.146203C52.8885 1.13132 52.3632 2.32634 51.3687 3.16516C50.5128 3.90179 49.3923 4.25809 48.2681 4.15115C46.9639 4.02938 45.8746 3.40754 45.0401 2.41233C44.7442 2.0127 44.6007 1.72292 44.4717 1.24892C43.0364 1.33986 40.1619 1.0397 38.7291 0.828251C31.4259-0.24965 25.4201-3.18184 19.7244-7.81638C19.0419-7.45117 18.5834-7.20676 17.7963-7.10292C16.5389-6.94722 15.2696-7.29595 14.2683-8.07234C12.1114-9.74329 11.9535-12.7972 13.6087-14.8907C13.2175-15.43 12.7335-16.2988 12.3969-16.8778C10.1544-20.7365 8.72153-25.2964 7.96521-29.6936C7.21443-29.8469 6.56068-30.0418 5.91189-30.4606C3.97995-31.7072 3.61939-34.5192 4.89759-36.3598C5.61532-37.3934 6.53044-37.8532 7.74523-38.0785C8.48099-43.9185 10.4205-49.3607 13.5772-54.3177C14.3464-55.5257 15.4107-57.1592 16.3679-58.224C15.8459-58.8457 15.5017-59.5703 15.3871-60.3767C15.2297-61.4675 15.5198-62.5769 16.1912-63.4508C17.136-64.6971 18.8197-65.4054 20.3646-65.1139C21.2019-64.9559 21.7646-64.64 22.4281-64.1247C23.0711-64.6066 24.5424-65.3965 25.2792-65.8064C29.8266-68.3359 33.8814-69.4075 38.9804-70.1285C39.6477-72.1729 41.0358-73.147 43.1262-73.4032ZM44.0979-27.0632C45.8643-26.3809 47.6428-25.7298 49.4323-25.1106C50.429-24.7582 52.1662-24.0433 53.1725-24.0757C53.8318-24.4782 53.9732-24.9784 54.6162-25.486C55.2873-26.0157 56.2859-26.2449 56.7634-26.8801C56.9164-27.9667 56.8809-29.1031 56.8507-30.1988C56.8021-31.9591 56.2727-41.3058 55.5745-42.3151C55.5129-42.4041 55.4304-42.4785 55.3534-42.5538C54.7797-42.6758 54.0646-42.8022 53.5281-43.0021C52.8005-43.2734 52.2511-44.0963 51.4197-44.0487C50.2677-43.4566 49.0975-42.6533 48.0044-41.944C46.6374-41.0576 45.2638-40.1815 43.8836-39.3158L38.9178-36.1825C37.9475-35.5748 36.9669-34.985 36.0249-34.3303C35.4477-33.9838 35.5158-33.0687 35.5329-32.4827C35.5421-32.1716 35.5746-31.2381 35.7432-31.0075C36.4363-30.0595 38.4666-29.4027 39.4816-28.9575C41.0417-28.2732 42.5552-27.6454 44.0979-27.0632ZM12.8347-42.6318C11.7913-41.0099 10.8984-39.2769 10.2975-37.4395C11.2342-36.7957 11.8798-35.8074 12.093-34.691C12.292-33.5283 12.0171-32.333 11.33-31.3741C10.9217-30.8019 10.4818-30.4635 9.89221-30.0959C10.5878-25.9736 11.6629-22.3365 13.6349-18.6132C14.046-17.8371 14.6582-16.7514 15.1819-16.0557C15.8788-16.266 16.3848-16.3336 17.1062-16.311L17.3197-16.8153C18.6991-19.8533 20.4589-22.7038 22.5567-25.2983C23.4124-26.3714 24.7936-27.8484 25.5232-28.9275C25.3839-29.4839 25.2016-29.9277 25.0367-30.4668C24.6453-31.7465 24.8964-32.745 25.2023-33.9932C24.6071-34.8047 23.3595-35.6545 22.5297-36.3152C21.6606-37.0004 20.8147-37.7143 19.9932-38.4559C19.1353-39.2361 18.2936-40.0338 17.4685-40.8487C17.1975-41.1168 15.7649-42.6201 15.5903-42.7165C14.5755-42.3869 13.8593-42.2675 12.8347-42.6318ZM31.0887-49.9609C30.8087-48.4981 30.5851-38.4689 31.1868-37.6735C31.4075-37.3818 33.4676-36.3106 33.8982-36.1182C34.0645-36.044 34.2399-36.0011 34.4166-35.96C35.4896-36.4706 36.8047-37.3343 37.813-37.9776L42.0518-40.6906C43.6442-41.7221 45.2458-42.7391 46.8564-43.7417C47.872-44.3787 49.0062-45.0087 49.9312-45.7709C50.0874-45.8994 50.2021-45.995 50.2452-46.2004C50.3666-46.7803 50.1975-48.2511 49.8668-48.7347C49.2789-49.5942 41.1932-51.3761 39.7875-51.6626C38.3903-51.9473 36.9685-52.2055 35.5561-52.3995C35.1553-52.4546 34.7614-52.4983 34.3563-52.4709C33.867-51.9876 33.5649-51.3429 33.008-50.9064C32.4383-50.4596 31.7642-50.2023 31.0887-49.9609ZM71.5115-35.4101C70.8472-34.4086 70.3012-33.2875 69.7025-32.2501C67.9209-29.1627 65.3112-26.703 63.0985-23.953C62.9436-23.7604 63.3575-22.5345 63.4029-22.2465C63.6112-21.2721 63.4674-20.33 63.1993-19.3845C64.2666-18.7107 65.3518-18.1201 66.4669-17.5305C66.6307-17.4438 66.8422-17.3409 66.9959-17.2424C67.376-17.0376 67.8909-16.7801 68.2497-16.5608C69.7699-17.9028 71.1845-18.2734 73.0971-17.4947C73.5788-18.3221 74.0333-19.343 74.4324-20.2161C76.0061-23.6595 77.0149-27.0147 77.4256-30.7753C75.2431-32.27 74.581-33.5607 75.2055-36.2168C74.9367-36.3151 74.8044-36.376 74.5497-36.5028C73.5838-35.5935 72.799-35.4201 71.5115-35.4101ZM35.54-15.8763C37.4051-15.6356 37.3848-15.4839 38.6381-14.3327C40.3575-14.6706 42.3308-15.3485 43.9802-15.942C45.083-16.3389 46.4518-16.8354 47.5162-17.2967C48.4241-17.6862 49.3287-18.0835 50.2297-18.4886C50.8189-18.7546 52.1399-19.2528 52.3908-19.8948C52.5412-20.2795 52.4569-21.1586 52.288-21.5294C52.0858-22.0136 51.5789-22.1436 51.115-22.305C49.1632-22.9844 47.1618-23.6066 45.2309-24.3396C43.2123-25.0962 41.2098-25.8947 39.2246-26.735C38.0724-27.2254 35.6411-28.4659 34.5411-28.4776C34.0954-28.2182 32.8406-27.1391 32.7277-26.659C32.4265-25.3781 34.8063-17.2358 35.54-15.8763ZM33.7309-57.3405C33.9681-56.965 34.1239-56.7226 34.326-56.2851C34.5543-55.7907 34.6159-55.1327 34.9268-54.6876C34.9399-54.6689 35.2433-54.578 35.2994-54.5682C36.5623-54.3482 37.8139-54.2089 39.0792-53.9737C41.8087-53.4693 44.5106-52.826 47.1746-52.0466C48.1734-51.7205 49.8484-51.0973 50.833-51.1225C51.4489-51.5079 52.0334-52.1762 52.5017-52.7294C51.6308-55.822 47.9519-62.6037 45.8499-65.1289C43.9838-64.2662 42.3353-64.1872 40.6214-65.4768C38.594-63.8607 36.5911-61.3419 35.0341-59.2784C34.6678-58.7929 33.9919-57.8633 33.7309-57.3405ZM19.1561-15.64C20.3772-14.999 21.3422-13.4931 21.3869-12.1076C22.7865-12.0248 23.9799-11.9512 25.3859-12.0029C27.105-12.0818 30.548-12.2844 32.1595-12.7665C32.5131-13.7977 32.6266-14.3057 33.453-15.0481C32.7846-16.9772 32.1815-18.9283 31.6451-20.8983C31.3579-21.9563 31.0909-23.0198 30.8443-24.088C30.695-24.7174 30.5414-25.6958 30.1973-26.2119C30.0304-26.2984 27.2817-27.2805 27.1274-27.2872C26.5222-26.8833 26.1208-26.3853 25.6651-25.8248C23.139-22.7184 20.7023-19.3546 19.1561-15.64ZM61.2556-25.6809C62.2991-26.1444 63.6869-27.8382 64.456-28.7518C66.3561-31.0291 68.2675-33.5929 69.4625-36.3205C68.703-37.4563 68.2876-38.324 68.564-39.7271C68.5837-39.826 68.6044-39.9247 68.6261-40.0232C67.1235-41.121 61.8852-44.6503 60.1312-44.8073C59.808-44.6026 58.0464-43.1052 58.0199-42.7959C57.9139-41.5647 58.2921-39.5782 58.4389-38.3296C58.5536-37.294 58.6573-36.2573 58.7502-35.2196C58.9133-33.3446 59.0092-31.4645 59.0378-29.5827C59.0639-27.2973 58.7129-26.489 61.2556-25.6809ZM31.7348-10.4835C28.3157-10.0946 24.7678-9.69888 21.3226-10.0538L21.0257-9.30846C24.66-5.98857 30.4148-3.04087 35.179-1.85341C38.129-1.04678 41.1788-0.664212 44.2366-0.717148C44.3117-1.09497 44.3575-1.28644 44.4912-1.64943C42.2779-3.48384 40.3336-5.17428 38.486-7.40764C38.1529-7.81028 37.6085-8.3882 37.3223-8.79549C36.1052-8.50144 35.0652-8.38985 33.9256-9.02682C33.0012-9.54347 32.857-10.6049 31.7348-10.4835ZM60.0251-51.446C60.6376-50.5106 61.0201-49.5678 61.075-48.442C61.0904-48.1274 61.0195-47.7446 61.0983-47.4423C61.2976-46.6776 64.8593-45.0602 65.6567-44.6018C66.271-44.2487 66.8578-43.7584 67.4907-43.4543C68.0236-43.093 69.2158-42.3399 69.6815-41.9563C70.0935-42.2216 70.3612-42.3987 70.8216-42.5719C70.7115-46.9162 69.8571-52.5356 67.9816-56.4919C67.0153-56.3782 65.7572-56.6114 64.9634-57.1978C64.0249-56.0175 63.0516-54.8653 62.045-53.7426C61.4138-53.0323 60.6018-52.1797 60.0251-51.446ZM76.9101-38.3613L77.4408-38.6065C77.1708-39.9102 76.9424-41.1807 76.617-42.4722C75.6675-46.2415 74.2426-49.9868 72.0873-53.24C71.8392-53.6143 71.0403-54.892 70.7171-55.119C70.9425-54.6345 71.2274-53.5827 71.3812-53.0417C71.9805-50.9063 72.4141-48.7277 72.6782-46.5255C72.824-45.2346 72.8928-43.8782 72.9816-42.5786C74.8524-41.6681 75.5805-40.4921 75.4151-38.4244L76.2996-37.9438C76.5023-38.0868 76.6996-38.2296 76.9101-38.3613ZM26.2949-51.7031C23.6632-50.9557 19.5492-49.0127 17.4141-47.3071C17.6849-46.1064 17.627-45.3934 17.1695-44.2383C18.2856-42.8631 19.6451-41.6429 20.9333-40.4324C21.3968-39.997 22.2655-39.332 22.6507-38.9208C23.5155-38.2103 25.5851-36.3837 26.5283-36.0726C27.0092-36.266 28.5244-37.0673 28.6547-37.5101C28.8854-38.2944 28.6959-40.1682 28.6553-41.0603C28.5802-42.7018 28.5831-44.3458 28.6641-45.987C28.7184-47.1729 28.9219-48.7959 28.7641-49.9217C28.3953-50.2705 27.7323-50.569 27.2899-50.9293C27.0257-51.1445 26.6378-51.6462 26.4653-51.7152L26.2949-51.7031ZM22.7135-58.5093C21.691-57.5032 20.9069-57.0007 19.436-57.0193C19.1243-57.0261 18.8131-57.0488 18.5036-57.0872C17.4457-54.922 16.5621-52.8023 15.9878-50.4525C15.8933-50.066 15.7314-49.6595 15.8571-49.2648C16.2146-48.9111 17.636-49.9933 18.0407-50.2539C20.6418-51.6971 22.9312-52.8479 25.7705-53.786C25.7786-54.519 25.7926-55.1611 26.0209-55.8728C24.8404-57.0341 24.1167-57.6068 22.7135-58.5093ZM23.5164-62.5437C23.7658-61.5936 23.7775-61.3182 23.6861-60.3308C24.3779-59.8419 25.0995-59.2724 25.7706-58.8083C26.1986-58.45 26.8067-57.9655 27.1875-57.5855C28.5398-58.9822 30.1292-58.9463 31.8971-58.6139C32.4597-59.1614 33.3137-60.4615 33.8342-61.1547C35.0963-62.8439 36.4996-64.4228 38.0292-65.8742C38.3284-66.1592 38.8792-66.6975 39.2042-66.9294C39.0842-67.3188 39.0035-67.9043 38.7251-68.1257C38.5667-68.1515 38.5439-68.1403 38.3878-68.1198C34.5017-67.7476 30.1072-66.1454 26.6493-64.3688C25.5906-63.8248 24.5357-63.1635 23.5164-62.5437ZM50.5519-4.14262C52.3308-7.05794 53.633-9.80398 54.6547-13.0669C55.0174-14.225 55.3286-14.9622 55.4359-16.2009C54.8758-16.6281 53.8791-17.5077 53.1647-17.4853C50.7574-16.4887 48.634-15.3467 46.1217-14.412C45.0477-14.012 43.9648-13.6365 42.8738-13.2854C41.8794-12.9754 40.2403-12.5711 39.3905-12.0924C39.2213-11.3718 39.07-11.0313 38.8854-10.3903C40.0947-8.68894 41.8737-6.76573 43.3984-5.33075C44.0126-4.76126 44.9131-3.89074 45.6349-3.48665C47.2571-4.60818 48.6827-4.97591 50.5519-4.14262ZM67.2706-14.725C65.59-15.6148 63.7276-16.5672 62.0813-17.5025C60.6461-15.9421 59.6612-15.8652 57.6492-15.4669C57.2824-14.5323 56.9984-13.5418 56.7014-12.5817C55.6292-9.11456 54.1622-5.87203 52.1762-2.83291C52.4016-2.52945 52.53-2.35164 52.7138-2.02473C54.1348-2.49348 55.4801-2.91706 56.8457-3.5391C60.4291-5.08973 63.5272-7.00355 66.408-9.64188C66.8648-10.0602 67.5454-10.6664 67.9569-11.121C67.2223-12.4243 67.0162-13.2445 67.2706-14.725ZM54.6747-53.6399C55.3682-53.6067 56.0512-53.5954 56.7406-53.4799C57.2717-53.3909 57.7534-53.0885 58.2547-53.0403C58.4655-53.0201 58.7529-53.2044 58.8956-53.3545C59.5218-54.013 60.1158-54.759 60.7128-55.4457C61.4225-56.2738 62.6836-57.8172 63.4062-58.5401C62.8127-59.7338 62.6744-60.9853 63.1168-62.2638C58.8625-65.2101 54.0402-66.9885 48.9731-67.872C48.6557-67.9274 48.2529-67.9707 47.9533-68.0483C47.8075-67.4477 47.6648-67.1049 47.4293-66.5347C49.4218-63.982 51.1534-60.93 52.5929-58.0395C53.2951-56.6296 53.8697-54.9566 54.6747-53.6399ZM13.1582-49.5108C13.4903-49.606 13.4649-49.579 13.6516-49.8686C13.8343-50.152 14.1329-51.2538 14.0827-51.5258C13.9039-51.1738 13.136-49.7449 13.1582-49.5108Z"/>
  </g>
 </g>
</svg>
